<!-- Generator: Adobe Illustrator 21.1.0, SVG Export Plug-In  -->
<svg version="1.1"
	 xmlns="http://www.w3.org/2000/svg" xmlns:xlink="http://www.w3.org/1999/xlink" xmlns:a="http://ns.adobe.com/AdobeSVGViewerExtensions/3.0/"
	 x="0px" y="0px" width="44px" height="46px" viewBox="0 0 44 46" style="enable-background:new 0 0 44 46;" xml:space="preserve">
<style type="text/css">
	.st0{opacity:0.2;}
	.st1{fill:#F0FDFF;}
	.st2{fill:#A6ECFE;}
</style>
<defs>
	<symbol  id="audio_x5F_btn" viewBox="-27.8 -29 55.5 58">
		<g id="audio_button_1_1_" transform="matrix( 1, 0, 0, 1, 597.5,440) ">
			<path class="st0" d="M-578.2-422.1c-5.4,5.4-11.9,8.1-19.5,8.1c-7.6,0-14-2.7-19.4-8.1c-5.4-5.4-8.1-11.8-8.1-19.4
				c0-7.6,2.7-14.1,8.1-19.4c5.4-5.4,11.9-8.1,19.4-8.1c7.6,0,14.1,2.7,19.5,8.1c5.3,5.3,8,11.8,8,19.4
				C-570.2-433.9-572.9-427.4-578.2-422.1z"/>
			<g transform="matrix( 1, 0, 0, 1, -256.9,-705.65) ">
				<g>
					<g id="audio_button_0_Layer0_0_MEMBER_1_MEMBER_0_MEMBER_0_MEMBER_0_FILL_1_">
						<path class="st1" d="M-322,285.5c-5.1,5.1-11.2,7.6-18.4,7.6c-7.1,0-13.2-2.5-18.3-7.6c-5.1-5.1-7.6-11.2-7.6-18.3
							c0-7.2,2.5-13.3,7.6-18.3c5.1-5.1,11.2-7.7,18.3-7.7c7.2,0,13.3,2.5,18.4,7.7c5,5,7.6,11.1,7.6,18.3
							C-314.4,274.3-316.9,280.4-322,285.5z"/>
					</g>
				</g>
			</g>
			<g transform="matrix( 1, 0, 0, 1, -256.9,-705.65) ">
				<g>
					<g id="audio_button_0_Layer0_0_MEMBER_2_MEMBER_0_MEMBER_0_MEMBER_0_FILL_1_">
						<path class="st2" d="M-320.9,286.6c-5.4,5.4-11.9,8.1-19.5,8.1c-7.6,0-14-2.7-19.4-8.1c-5.4-5.4-8.1-11.8-8.1-19.4
							c0-7.6,2.7-14.1,8.1-19.4c5.4-5.4,11.9-8.1,19.4-8.1c7.6,0,14.1,2.7,19.5,8.1c5.3,5.3,8,11.8,8,19.4
							C-312.9,274.8-315.5,281.2-320.9,286.6 M-340.4,291.8c6.8,0,12.6-2.4,17.5-7.2c4.8-4.8,7.2-10.6,7.2-17.4
							c0-6.8-2.4-12.6-7.2-17.4c-4.9-4.8-10.7-7.2-17.5-7.2c-6.8,0-12.6,2.4-17.4,7.2c-4.8,4.8-7.2,10.6-7.2,17.4s2.4,12.6,7.2,17.4
							C-352.9,289.4-347.1,291.8-340.4,291.8z"/>
					</g>
				</g>
			</g>
			<g transform="matrix( 1, 0, 0, 1, -256.9,-705.65) ">
				<g>
					<g id="audio_button_0_Layer0_0_MEMBER_3_MEMBER_0_MEMBER_0_MEMBER_0_FILL_1_">
						<path d="M-344.1,278.6c-2.4-2.1-3.7-3.3-4.1-3.5c-1.2-1-2.5-1.4-3.9-1.2h-2.4c-0.5,0-0.9-0.2-1.1-0.6
							c-0.5-0.9-0.7-1.5-0.8-1.9c-0.6-2.3-0.7-4.8-0.2-7.6c0.3-1.2,0.7-2.1,1.1-2.7c0.2-0.3,0.5-0.5,0.9-0.5l3,0
							c0.9,0,1.6-0.2,2.2-0.6l5.6-4.5c0.8-0.7,1.6-0.8,2.4-0.2c0.5,0.4,0.8,1,0.8,1.9v20.1c0,1.2-0.5,1.9-1.6,2
							C-343,279.3-343.6,279.1-344.1,278.6z"/>
					</g>
				</g>
			</g>
			<g transform="matrix( 1, 0, 0, 1, -256.9,-705.65) ">
				<g>
					<g id="audio_button_0_Layer0_0_MEMBER_4_MEMBER_0_MEMBER_0_MEMBER_0_FILL_1_">
						<path d="M-331,276.6l1-1.2c2.6-3.3,3.5-6.9,2.6-11c-0.5-2.4-1.6-4.5-3.4-6.3c-0.4-0.6-0.6-1.1-0.6-1.5c0.1-0.7,0.5-1.2,1-1.4
							c0.7-0.3,1.4-0.1,2,0.5c3.1,3.3,4.6,7.1,4.6,11.4c0,2.3-0.4,4.4-1.2,6.4c-0.8,2-2,3.7-3.5,5.3c-0.3,0.3-0.7,0.5-1.2,0.5
							c-0.4,0-0.8-0.2-1.2-0.5c-0.3-0.3-0.4-0.7-0.4-1.1C-331.4,277.3-331.3,276.9-331,276.6z"/>
					</g>
				</g>
			</g>
			<g transform="matrix( 1, 0, 0, 1, -256.9,-705.65) ">
				<g>
					<g id="audio_button_0_Layer0_0_MEMBER_5_MEMBER_0_MEMBER_0_MEMBER_0_FILL_1_">
						<path d="M-336.5,274.1c-0.2-0.6,0-1.1,0.4-1.5c1.8-1.9,2.5-4.1,2.1-6.7c-0.2-1.5-0.9-2.8-2.1-4.1c-0.3-0.3-0.5-0.7-0.5-1.2
							c0-0.4,0.2-0.8,0.5-1.2c0.3-0.3,0.7-0.4,1.1-0.4c0.4,0,0.8,0.2,1.1,0.6c2,2.1,3,4.6,3.1,7.5c-0.1,1.1-0.2,2-0.4,2.6
							c-0.5,1.9-1.4,3.5-2.8,5c-0.5,0.5-1,0.6-1.5,0.5C-336,275-336.4,274.7-336.5,274.1z"/>
					</g>
				</g>
			</g>
		</g>
	</symbol>
</defs>
<use xlink:href="#audio_x5F_btn"  width="55.5" height="58" x="-27.8" y="-29" transform="matrix(0.7928 0 0 -0.7928 22 22.991)" style="overflow:visible;"/>
</svg>
