<!-- Generator: Adobe Illustrator 21.1.0, SVG Export Plug-In  -->
<svg version="1.1"
	 xmlns="http://www.w3.org/2000/svg" xmlns:xlink="http://www.w3.org/1999/xlink" xmlns:a="http://ns.adobe.com/AdobeSVGViewerExtensions/3.0/"
	 x="0px" y="0px" width="453.2px" height="276.8px" viewBox="0 0 453.2 276.8" style="enable-background:new 0 0 453.2 276.8;"
	 xml:space="preserve">
<style type="text/css">
	.st0{fill:#9B9B9C;}
	.st1{fill:url(#SVGID_1_);}
</style>
<defs>
	<symbol  id="tile_x5F_rect_x5F_01" viewBox="-127 -75.8 254 151.5">
		<path class="st0" d="M117-75.8h-234c-5.5,0-10,4.5-10,10v127c0,5.5,4.5,10,10,10h234c5.5,0,10-4.5,10-10v-127
			C127-71.3,122.5-75.8,117-75.8z"/>
		<linearGradient id="SVGID_1_" gradientUnits="userSpaceOnUse" x1="1.818989e-12" y1="-13.75" x2="1.461602e-11" y2="-138.1526">
			<stop  offset="0" style="stop-color:#FFFFFF"/>
			<stop  offset="1" style="stop-color:#CDCCCC"/>
		</linearGradient>
		<path class="st1" d="M117-71.2h-234c-5.5,0-10,4.5-10,10v127c0,5.5,4.5,10,10,10h234c5.5,0,10-4.5,10-10v-127
			C127-66.8,122.5-71.2,117-71.2z"/>
	</symbol>
</defs>
<use xlink:href="#tile_x5F_rect_x5F_01"  width="254" height="151.5" x="-127" y="-75.8" transform="matrix(1.7842 0 0 -1.8272 226.5973 138.4125)" style="overflow:visible;"/>
</svg>
