<!-- Generator: Adobe Illustrator 21.1.0, SVG Export Plug-In  -->
<svg version="1.1"
	 xmlns="http://www.w3.org/2000/svg" xmlns:xlink="http://www.w3.org/1999/xlink" xmlns:a="http://ns.adobe.com/AdobeSVGViewerExtensions/3.0/"
	 x="0px" y="0px" width="453.2px" height="268.6px" viewBox="0 0 453.2 268.6" style="enable-background:new 0 0 453.2 268.6;"
	 xml:space="preserve">
<style type="text/css">
	.st0{fill:#FFFF00;}
</style>
<defs>
</defs>
<g>
	<path class="st0" d="M443.2,6c2.2,0,4,1.8,4,4v248.6c0,2.2-1.8,4-4,4H10c-2.2,0-4-1.8-4-4V10c0-2.2,1.8-4,4-4H443.2 M443.2,0H10
		C4.5,0,0,4.5,0,10v248.6c0,5.5,4.5,10,10,10h433.2c5.5,0,10-4.5,10-10V10C453.2,4.5,448.7,0,443.2,0L443.2,0z"/>
</g>
</svg>
